<svg viewBox="0 0 2000 1400" xmlns="http://www.w3.org/2000/svg"><mask id="b" x="0" y="0" width="2000" height="1400"><path fill="url(#a)" d="M0 0h2000v1400H0z"/></mask><path fill="#eeeefa" d="M0 0h2000v1400H0z"/><g style="transform-origin:center center" stroke="#c7bed8" stroke-width="2" mask="url(#b)"><path fill="none" d="M0 0h100v100H0z"/><path fill="#c7bed810" d="M100 0h100v100H100z"/><path fill="#c7bed8a5" d="M200 0h100v100H200z"/><path fill="none" d="M300 0h100v100H300z"/><path fill="#c7bed89c" d="M400 0h100v100H400z"/><path fill="none" d="M500 0h100v100H500z"/><path fill="#c7bed82a" d="M600 0h100v100H600z"/><path fill="none" d="M700 0h100v100H700z"/><path fill="#c7bed8fa" d="M800 0h100v100H800z"/><path fill="none" d="M900 0h100v100H900z"/><path fill="#c7bed860" d="M1000 0h100v100h-100z"/><path fill="none" d="M1100 0h100v100h-100zM1200 0h100v100h-100zM1300 0h100v100h-100zM1400 0h100v100h-100zM1500 0h100v100h-100zM1600 0h100v100h-100z"/><path fill="#c7bed819" d="M1700 0h100v100h-100z"/><path fill="none" d="M1800 0h100v100h-100zM1900 0h100v100h-100z"/><path fill="#c7bed887" d="M0 100h100v100H0z"/><path fill="none" d="M100 100h100v100H100zM200 100h100v100H200z"/><path fill="#c7bed8a7" d="M300 100h100v100H300z"/><path fill="none" d="M400 100h100v100H400zM500 100h100v100H500zM600 100h100v100H600zM700 100h100v100H700zM800 100h100v100H800zM900 100h100v100H900zM1000 100h100v100h-100z"/><path fill="#c7bed8ce" d="M1100 100h100v100h-100z"/><path fill="none" d="M1200 100h100v100h-100zM1300 100h100v100h-100zM1400 100h100v100h-100zM1500 100h100v100h-100z"/><path fill="#c7bed829" d="M1600 100h100v100h-100z"/><path fill="none" d="M1700 100h100v100h-100z"/><path fill="#c7bed882" d="M1800 100h100v100h-100z"/><path fill="none" d="M1900 100h100v100h-100z"/><path fill="#c7bed833" d="M0 200h100v100H0z"/><path fill="none" d="M100 200h100v100H100zM200 200h100v100H200zM300 200h100v100H300zM400 200h100v100H400z"/><path fill="#c7bed8d0" d="M500 200h100v100H500z"/><path fill="#c7bed827" d="M600 200h100v100H600z"/><path fill="#c7bed8e5" d="M700 200h100v100H700z"/><path fill="#c7bed82e" d="M800 200h100v100H800z"/><path fill="#c7bed818" d="M900 200h100v100H900z"/><path fill="none" d="M1000 200h100v100h-100z"/><path fill="#c7bed81f" d="M1100 200h100v100h-100z"/><path fill="none" d="M1200 200h100v100h-100zM1300 200h100v100h-100zM1400 200h100v100h-100zM1500 200h100v100h-100z"/><path fill="#c7bed89d" d="M1600 200h100v100h-100z"/><path fill="none" d="M1700 200h100v100h-100zM1800 200h100v100h-100z"/><path fill="#c7bed86f" d="M1900 200h100v100h-100z"/><path fill="none" d="M0 300h100v100H0z"/><path fill="#c7bed87c" d="M100 300h100v100H100z"/><path fill="none" d="M200 300h100v100H200zM300 300h100v100H300zM400 300h100v100H400zM500 300h100v100H500zM600 300h100v100H600zM700 300h100v100H700zM800 300h100v100H800zM900 300h100v100H900zM1000 300h100v100h-100zM1100 300h100v100h-100z"/><path fill="#c7bed82b" d="M1200 300h100v100h-100z"/><path fill="#c7bed84b" d="M1300 300h100v100h-100z"/><path fill="none" d="M1400 300h100v100h-100z"/><path fill="#c7bed86f" d="M1500 300h100v100h-100z"/><path fill="none" d="M1600 300h100v100h-100z"/><path fill="#c7bed8a5" d="M1700 300h100v100h-100z"/><path fill="none" d="M1800 300h100v100h-100zM1900 300h100v100h-100zM0 400h100v100H0z"/><path fill="#c7bed8c8" d="M100 400h100v100H100z"/><path fill="#c7bed86e" d="M200 400h100v100H200z"/><path fill="none" d="M300 400h100v100H300z"/><path fill="#c7bed8cd" d="M400 400h100v100H400z"/><path fill="#c7bed83c" d="M500 400h100v100H500z"/><path fill="none" d="M600 400h100v100H600zM700 400h100v100H700z"/><path fill="#c7bed89f" d="M800 400h100v100H800z"/><path fill="none" d="M900 400h100v100H900z"/><path fill="#c7bed8c8" d="M1000 400h100v100h-100z"/><path fill="#c7bed826" d="M1100 400h100v100h-100z"/><path fill="none" d="M1200 400h100v100h-100z"/><path fill="#c7bed89a" d="M1300 400h100v100h-100z"/><path fill="none" d="M1400 400h100v100h-100z"/><path fill="#c7bed854" d="M1500 400h100v100h-100z"/><path fill="none" d="M1600 400h100v100h-100zM1700 400h100v100h-100zM1800 400h100v100h-100zM1900 400h100v100h-100zM0 500h100v100H0zM100 500h100v100H100zM200 500h100v100H200zM300 500h100v100H300zM400 500h100v100H400zM500 500h100v100H500z"/><path fill="#c7bed894" d="M600 500h100v100H600z"/><path fill="none" d="M700 500h100v100H700zM800 500h100v100H800z"/><path fill="#c7bed880" d="M900 500h100v100H900z"/><path fill="none" d="M1000 500h100v100h-100zM1100 500h100v100h-100zM1200 500h100v100h-100zM1300 500h100v100h-100zM1400 500h100v100h-100zM1500 500h100v100h-100zM1600 500h100v100h-100zM1700 500h100v100h-100zM1800 500h100v100h-100zM1900 500h100v100h-100zM0 600h100v100H0zM100 600h100v100H100zM200 600h100v100H200zM300 600h100v100H300z"/><path fill="#c7bed8b6" d="M400 600h100v100H400z"/><path fill="none" d="M500 600h100v100H500zM600 600h100v100H600z"/><path fill="#c7bed808" d="M700 600h100v100H700z"/><path fill="none" d="M800 600h100v100H800zM900 600h100v100H900zM1000 600h100v100h-100zM1100 600h100v100h-100z"/><path fill="#c7bed895" d="M1200 600h100v100h-100z"/><path fill="none" d="M1300 600h100v100h-100zM1400 600h100v100h-100zM1500 600h100v100h-100z"/><path fill="#c7bed826" d="M1600 600h100v100h-100z"/><path fill="#c7bed815" d="M1700 600h100v100h-100z"/><path fill="none" d="M1800 600h100v100h-100zM1900 600h100v100h-100z"/><path fill="#c7bed853" d="M0 700h100v100H0z"/><path fill="none" d="M100 700h100v100H100zM200 700h100v100H200zM300 700h100v100H300z"/><path fill="#c7bed8bd" d="M400 700h100v100H400z"/><path fill="none" d="M500 700h100v100H500z"/><path fill="#c7bed83d" d="M600 700h100v100H600z"/><path fill="#c7bed890" d="M700 700h100v100H700z"/><path fill="none" d="M800 700h100v100H800zM900 700h100v100H900zM1000 700h100v100h-100z"/><path fill="#c7bed8b0" d="M1100 700h100v100h-100z"/><path fill="#c7bed8ad" d="M1200 700h100v100h-100z"/><path fill="#c7bed82b" d="M1300 700h100v100h-100z"/><path fill="#c7bed812" d="M1400 700h100v100h-100z"/><path fill="none" d="M1500 700h100v100h-100zM1600 700h100v100h-100zM1700 700h100v100h-100z"/><path fill="#c7bed8b9" d="M1800 700h100v100h-100z"/><path fill="none" d="M1900 700h100v100h-100z"/><path fill="#c7bed88b" d="M0 800h100v100H0z"/><path fill="none" d="M100 800h100v100H100zM200 800h100v100H200zM300 800h100v100H300zM400 800h100v100H400z"/><path fill="#c7bed874" d="M500 800h100v100H500z"/><path fill="none" d="M600 800h100v100H600z"/><path fill="#c7bed81b" d="M700 800h100v100H700z"/><path fill="none" d="M800 800h100v100H800z"/><path fill="#c7bed854" d="M900 800h100v100H900z"/><path fill="none" d="M1000 800h100v100h-100zM1100 800h100v100h-100zM1200 800h100v100h-100z"/><path fill="#c7bed8fc" d="M1300 800h100v100h-100z"/><path fill="none" d="M1400 800h100v100h-100zM1500 800h100v100h-100zM1600 800h100v100h-100z"/><path fill="#c7bed816" d="M1700 800h100v100h-100z"/><path fill="#c7bed8e8" d="M1800 800h100v100h-100z"/><path fill="none" d="M1900 800h100v100h-100z"/><path fill="#c7bed83f" d="M0 900h100v100H0z"/><path fill="none" d="M100 900h100v100H100zM200 900h100v100H200z"/><path fill="#c7bed8cd" d="M300 900h100v100H300z"/><path fill="#c7bed8ad" d="M400 900h100v100H400z"/><path fill="#c7bed87b" d="M500 900h100v100H500z"/><path fill="#c7bed8fa" d="M600 900h100v100H600z"/><path fill="#c7bed872" d="M700 900h100v100H700z"/><path fill="none" d="M800 900h100v100H800zM900 900h100v100H900zM1000 900h100v100h-100zM1100 900h100v100h-100zM1200 900h100v100h-100zM1300 900h100v100h-100zM1400 900h100v100h-100zM1500 900h100v100h-100zM1600 900h100v100h-100zM1700 900h100v100h-100zM1800 900h100v100h-100zM1900 900h100v100h-100z"/><path fill="#c7bed82b" d="M0 1000h100v100H0z"/><path fill="#c7bed8dc" d="M100 1000h100v100H100z"/><path fill="none" d="M200 1000h100v100H200z"/><path fill="#c7bed875" d="M300 1000h100v100H300z"/><path fill="#c7bed847" d="M400 1000h100v100H400z"/><path fill="none" d="M500 1000h100v100H500z"/><path fill="#c7bed8bc" d="M600 1000h100v100H600z"/><path fill="none" d="M700 1000h100v100H700z"/><path fill="#c7bed875" d="M800 1000h100v100H800z"/><path fill="none" d="M900 1000h100v100H900zM1000 1000h100v100h-100z"/><path fill="#c7bed8c2" d="M1100 1000h100v100h-100z"/><path fill="none" d="M1200 1000h100v100h-100zM1300 1000h100v100h-100zM1400 1000h100v100h-100zM1500 1000h100v100h-100zM1600 1000h100v100h-100zM1700 1000h100v100h-100zM1800 1000h100v100h-100zM1900 1000h100v100h-100z"/><path fill="#c7bed827" d="M0 1100h100v100H0z"/><path fill="none" d="M100 1100h100v100H100zM200 1100h100v100H200z"/><path fill="#c7bed85c" d="M300 1100h100v100H300z"/><path fill="none" d="M400 1100h100v100H400zM500 1100h100v100H500zM600 1100h100v100H600zM700 1100h100v100H700zM800 1100h100v100H800zM900 1100h100v100H900z"/><path fill="#c7bed82e" d="M1000 1100h100v100h-100z"/><path fill="#c7bed84b" d="M1100 1100h100v100h-100z"/><path fill="none" d="M1200 1100h100v100h-100zM1300 1100h100v100h-100zM1400 1100h100v100h-100zM1500 1100h100v100h-100z"/><path fill="#c7bed881" d="M1600 1100h100v100h-100z"/><path fill="none" d="M1700 1100h100v100h-100zM1800 1100h100v100h-100z"/><path fill="#c7bed858" d="M1900 1100h100v100h-100z"/><path fill="none" d="M0 1200h100v100H0zM100 1200h100v100H100zM200 1200h100v100H200z"/><path fill="#c7bed847" d="M300 1200h100v100H300z"/><path fill="none" d="M400 1200h100v100H400zM500 1200h100v100H500zM600 1200h100v100H600zM700 1200h100v100H700zM800 1200h100v100H800zM900 1200h100v100H900z"/><path fill="#c7bed8ca" d="M1000 1200h100v100h-100z"/><path fill="none" d="M1100 1200h100v100h-100z"/><path fill="#c7bed87f" d="M1200 1200h100v100h-100z"/><path fill="none" d="M1300 1200h100v100h-100zM1400 1200h100v100h-100z"/><path fill="#c7bed81a" d="M1500 1200h100v100h-100z"/><path fill="#c7bed88e" d="M1600 1200h100v100h-100z"/><path fill="none" d="M1700 1200h100v100h-100zM1800 1200h100v100h-100zM1900 1200h100v100h-100zM0 1300h100v100H0z"/><path fill="#c7bed85f" d="M100 1300h100v100H100z"/><path fill="#c7bed85e" d="M200 1300h100v100H200z"/><path fill="#c7bed8f8" d="M300 1300h100v100H300z"/><path fill="#c7bed8e6" d="M400 1300h100v100H400z"/><path fill="none" d="M500 1300h100v100H500zM600 1300h100v100H600zM700 1300h100v100H700zM800 1300h100v100H800zM900 1300h100v100H900z"/><path fill="#c7bed867" d="M1000 1300h100v100h-100z"/><path fill="#c7bed80a" d="M1100 1300h100v100h-100z"/><path fill="none" d="M1200 1300h100v100h-100zM1300 1300h100v100h-100zM1400 1300h100v100h-100zM1500 1300h100v100h-100zM1600 1300h100v100h-100zM1700 1300h100v100h-100z"/><path fill="#c7bed8d1" d="M1800 1300h100v100h-100z"/><path fill="none" d="M1900 1300h100v100h-100z"/></g><defs><radialGradient id="a"><stop offset="0" stop-color="#fff" stop-opacity=".7"/><stop offset="75%" stop-color="#fff" stop-opacity="0"/></radialGradient></defs></svg>