<svg viewBox="0 0 2000 1400" xmlns="http://www.w3.org/2000/svg"><mask id="b" x="0" y="0" width="2000" height="1400"><path fill="url(#a)" d="M0 0h2000v1400H0z"/></mask><path fill="#0c0910" d="M0 0h2000v1400H0z"/><g style="transform-origin:center center" stroke="#453750" stroke-width="2.6" mask="url(#b)"><path fill="none" d="M0 0h100v100H0zM100 0h100v100H100zM200 0h100v100H200z"/><path fill="#45375053" d="M400 0h100v100H400z"/><path fill="#45375059" d="M500 0h100v100H500z"/><path fill="none" d="M600 0h100v100H600z"/><path fill="#45375073" d="M800 0h100v100H800z"/><path fill="#4537506a" d="M900 0h100v100H900z"/><path fill="#45375056" d="M1300 0h100v100h-100z"/><path fill="none" d="M1500 0h100v100h-100zM1600 0h100v100h-100zM1700 0h100v100h-100zM1800 0h100v100h-100z"/><path fill="#45375054" d="M100 100h100v100H100z"/><path fill="none" d="M200 100h100v100H200z"/><path fill="#45375054" d="M300 100h100v100H300z"/><path fill="none" d="M400 100h100v100H400zM500 100h100v100H500zM600 100h100v100H600zM700 100h100v100H700z"/><path fill="#4537503f" d="M900 100h100v100H900z"/><path fill="#453750da" d="M1000 100h100v100h-100z"/><path fill="none" d="M1200 100h100v100h-100z"/><path fill="#453750a1" d="M1400 100h100v100h-100z"/><path fill="none" d="M1500 100h100v100h-100zM1600 100h100v100h-100zM1800 100h100v100h-100zM1900 100h100v100h-100zM100 200h100v100H100zM200 200h100v100H200zM300 200h100v100H300z"/><path fill="#453750b5" d="M500 200h100v100H500z"/><path fill="#45375040" d="M600 200h100v100H600z"/><path fill="none" d="M700 200h100v100H700zM900 200h100v100H900z"/><path fill="#4537509c" d="M1000 200h100v100h-100z"/><path fill="#45375002" d="M1200 200h100v100h-100z"/><path fill="none" d="M1400 200h100v100h-100zM1500 200h100v100h-100zM1600 200h100v100h-100zM0 300h100v100H0z"/><path fill="#4537509d" d="M100 300h100v100H100z"/><path fill="none" d="M200 300h100v100H200z"/><path fill="#4537501f" d="M600 300h100v100H600z"/><path fill="none" d="M800 300h100v100H800z"/><path fill="#45375093" d="M1100 300h100v100h-100z"/><path fill="#45375071" d="M1300 300h100v100h-100z"/><path fill="none" d="M1400 300h100v100h-100zM1600 300h100v100h-100zM1700 300h100v100h-100zM1800 300h100v100h-100z"/><path fill="#4537507a" d="M1900 300h100v100h-100z"/><path fill="none" d="M0 400h100v100H0zM100 400h100v100H100zM300 400h100v100H300zM400 400h100v100H400zM600 400h100v100H600zM700 400h100v100H700zM900 400h100v100H900zM1100 400h100v100h-100z"/><path fill="#453750c6" d="M1200 400h100v100h-100z"/><path fill="none" d="M1400 400h100v100h-100zM1500 400h100v100h-100zM1700 400h100v100h-100z"/><path fill="#453750f2" d="M1800 400h100v100h-100z"/><path fill="none" d="M1900 400h100v100h-100z"/><path fill="#45375079" d="M0 500h100v100H0z"/><path fill="none" d="M100 500h100v100H100zM300 500h100v100H300zM400 500h100v100H400z"/><path fill="#45375054" d="M700 500h100v100H700z"/><path fill="#453750a1" d="M900 500h100v100H900z"/><path fill="none" d="M1000 500h100v100h-100zM1100 500h100v100h-100zM1200 500h100v100h-100zM1300 500h100v100h-100zM1400 500h100v100h-100zM1600 500h100v100h-100z"/><path fill="#45375024" d="M1700 500h100v100h-100z"/><path fill="#453750e0" d="M1800 500h100v100h-100z"/><path fill="none" d="M1900 500h100v100h-100z"/><path fill="#453750b7" d="M100 600h100v100H100z"/><path fill="#453750ed" d="M200 600h100v100H200z"/><path fill="none" d="M300 600h100v100H300zM400 600h100v100H400zM600 600h100v100H600zM700 600h100v100H700zM1200 600h100v100h-100zM1300 600h100v100h-100z"/><path fill="#453750d9" d="M1400 600h100v100h-100z"/><path fill="none" d="M1700 600h100v100h-100zM1800 600h100v100h-100zM1900 600h100v100h-100zM0 700h100v100H0z"/><path fill="#453750f0" d="M100 700h100v100H100z"/><path fill="none" d="M200 700h100v100H200z"/><path fill="#453750f9" d="M500 700h100v100H500z"/><path fill="#453750d3" d="M700 700h100v100H700z"/><path fill="none" d="M1300 700h100v100h-100zM1500 700h100v100h-100z"/><path fill="#4537501e" d="M1600 700h100v100h-100z"/><path fill="#45375087" d="M1700 700h100v100h-100z"/><path fill="#45375032" d="M1900 700h100v100h-100z"/><path fill="none" d="M0 800h100v100H0zM100 800h100v100H100zM200 800h100v100H200zM300 800h100v100H300z"/><path fill="#45375081" d="M400 800h100v100H400z"/><path fill="#45375043" d="M500 800h100v100H500z"/><path fill="none" d="M600 800h100v100H600zM1000 800h100v100h-100z"/><path fill="#4537503f" d="M1300 800h100v100h-100z"/><path fill="none" d="M1800 800h100v100h-100zM1900 800h100v100h-100zM100 900h100v100H100zM200 900h100v100H200zM400 900h100v100H400zM600 900h100v100H600z"/><path fill="#45375026" d="M700 900h100v100H700z"/><path fill="none" d="M800 900h100v100H800zM1000 900h100v100h-100zM1100 900h100v100h-100z"/><path fill="#453750d2" d="M1200 900h100v100h-100z"/><path fill="none" d="M1300 900h100v100h-100zM1600 900h100v100h-100zM1700 900h100v100h-100z"/><path fill="#453750ee" d="M1900 900h100v100h-100z"/><path fill="none" d="M0 1000h100v100H0zM200 1000h100v100H200zM300 1000h100v100H300zM400 1000h100v100H400zM700 1000h100v100H700zM800 1000h100v100H800z"/><path fill="#4537509f" d="M1100 1000h100v100h-100z"/><path fill="none" d="M1300 1000h100v100h-100zM1400 1000h100v100h-100zM1500 1000h100v100h-100zM1600 1000h100v100h-100zM1800 1000h100v100h-100zM1900 1000h100v100h-100zM0 1100h100v100H0z"/><path fill="#45375083" d="M100 1100h100v100H100z"/><path fill="none" d="M200 1100h100v100H200z"/><path fill="#45375008" d="M300 1100h100v100H300z"/><path fill="none" d="M400 1100h100v100H400zM500 1100h100v100H500z"/><path fill="#45375068" d="M800 1100h100v100H800z"/><path fill="#453750c8" d="M900 1100h100v100H900z"/><path fill="#4537502b" d="M1000 1100h100v100h-100z"/><path fill="#45375090" d="M1100 1100h100v100h-100z"/><path fill="#453750e3" d="M1300 1100h100v100h-100z"/><path fill="none" d="M1400 1100h100v100h-100z"/><path fill="#453750d7" d="M1500 1100h100v100h-100z"/><path fill="#45375001" d="M1600 1100h100v100h-100z"/><path fill="none" d="M1700 1100h100v100h-100zM1800 1100h100v100h-100zM0 1200h100v100H0zM100 1200h100v100H100zM200 1200h100v100H200zM400 1200h100v100H400zM500 1200h100v100H500zM900 1200h100v100H900zM1000 1200h100v100h-100z"/><path fill="#4537502a" d="M1100 1200h100v100h-100z"/><path fill="none" d="M1200 1200h100v100h-100z"/><path fill="#4537502d" d="M1300 1200h100v100h-100z"/><path fill="none" d="M1400 1200h100v100h-100zM1500 1200h100v100h-100z"/><path fill="#4537505c" d="M1600 1200h100v100h-100z"/><path fill="#45375068" d="M200 1300h100v100H200z"/><path fill="#453750ef" d="M300 1300h100v100H300z"/><path fill="none" d="M400 1300h100v100H400zM500 1300h100v100H500z"/><path fill="#45375003" d="M700 1300h100v100H700z"/><path fill="none" d="M800 1300h100v100H800z"/><path fill="#45375082" d="M1100 1300h100v100h-100z"/><path fill="#453750bb" d="M1500 1300h100v100h-100z"/><path fill="none" d="M1600 1300h100v100h-100zM1800 1300h100v100h-100zM1900 1300h100v100h-100z"/></g><defs><radialGradient id="a"><stop offset="0" stop-color="#fff" stop-opacity=".7"/><stop offset="75%" stop-color="#fff" stop-opacity="0"/></radialGradient></defs></svg>
